<?xml version="1.0" encoding="UTF-8"?>
<svg xmlns="http://www.w3.org/2000/svg" xmlns:xlink="http://www.w3.org/1999/xlink">
  <symbol id="x">
    <svg viewBox="0 0 14 14">
      <path
        d="M7.00023 5.58599L11.9502 0.635986L13.3642 2.04999L8.41423 6.99999L13.3642 11.95L11.9502 13.364L7.00023 8.41399L2.05023 13.364L0.63623 11.95L5.58623 6.99999L0.63623 2.04999L2.05023 0.635986L7.00023 5.58599Z"
        fill="currentColor"/>
    </svg>
  </symbol>
  <symbol id="alert-circle">
    <svg viewBox="0 0 24 24">
      <path
        d="M12 22C6.477 22 2 17.523 2 12S6.477 2 12 2s10 4.477 10 10-4.477 10-10 10zm0-2a8 8 0 1 0 0-16 8 8 0 0 0 0 16zm-1-5h2v2h-2v-2zm0-8h2v6h-2V7z"
        fill="currentColor"/>
    </svg>
  </symbol>
  <symbol id="bell">
    <svg viewBox="0 0 24 24">
      <path d="M20 17h2v2H2v-2h2v-7a8 8 0 1 1 16 0v7zm-2 0v-7a6 6 0 1 0-12 0v7h12zm-9 4h6v2H9v-2z" fill="currentColor"/>
    </svg>
  </symbol>
  <symbol id="search">
    <svg viewBox="0 0 24 24">
      <path
        d="M18.031 16.617l4.283 4.282-1.415 1.415-4.282-4.283A8.96 8.96 0 0 1 11 20c-4.968 0-9-4.032-9-9s4.032-9 9-9 9 4.032 9 9a8.96 8.96 0 0 1-1.969 5.617zm-2.006-.742A6.977 6.977 0 0 0 18 11c0-3.868-3.133-7-7-7-3.868 0-7 3.132-7 7 0 3.867 3.132 7 7 7a6.977 6.977 0 0 0 4.875-1.975l.15-.15z"
        fill="currentColor"/>
    </svg>
  </symbol>
  <symbol id="home">
    <svg viewBox="0 0 24 24">
      <path
        d="M19 21H5a1 1 0 0 1-1-1v-9H1l10.327-9.388a1 1 0 0 1 1.346 0L23 11h-3v9a1 1 0 0 1-1 1zm-6-2h5V9.157l-6-5.454-6 5.454V19h5v-6h2v6z"
        fill="currentColor"/>
    </svg>
  </symbol>
  <symbol id="user">
    <svg viewBox="0 0 24 24">
      <path
        d="M4 22a8 8 0 1 1 16 0h-2a6 6 0 1 0-12 0H4zm8-9c-3.315 0-6-2.685-6-6s2.685-6 6-6 6 2.685 6 6-2.685 6-6 6zm0-2c2.21 0 4-1.79 4-4s-1.79-4-4-4-4 1.79-4 4 1.79 4 4 4z"
        fill="currentColor"/>
    </svg>
  </symbol>
  <symbol id="suitcase">
    <svg viewBox="0 0 24 24">
      <path
        d="M15 3c.552 0 1 .448 1 1v2h5c.552 0 1 .448 1 1v13c0 .552-.448 1-1 1H3c-.552 0-1-.448-1-1V7c0-.552.448-1 1-1h5V4c0-.552.448-1 1-1h6zm1 5H8v11h8V8zM4 8v11h2V8H4zm10-3h-4v1h4V5zm4 3v11h2V8h-2z"
        fill="currentColor"/>
    </svg>
  </symbol>
  <symbol id="file">
    <svg viewBox="0 0 24 24">
      <path fill="currentColor"
        d="M21 8v12.993A1 1 0 0 1 20.007 22H3.993A.993.993 0 0 1 3 21.008V2.992C3 2.455 3.449 2 4.002 2h10.995L21 8zm-2 1h-5V4H5v16h14V9zM8 7h3v2H8V7zm0 4h8v2H8v-2zm0 4h8v2H8v-2z"/>
    </svg>
  </symbol>
  <symbol id="time">
    <svg viewBox="0 0 24 24">
      <path
        d="M12 22C6.477 22 2 17.523 2 12S6.477 2 12 2s10 4.477 10 10-4.477 10-10 10zm0-2a8 8 0 1 0 0-16 8 8 0 0 0 0 16zm1-8h4v2h-6V7h2v5z"
        fill="currentColor"/>
    </svg>
  </symbol>
  <symbol id="dollar-circle">
    <svg viewBox="0 0 24 24">
      <path
        d="M12 22C6.477 22 2 17.523 2 12S6.477 2 12 2s10 4.477 10 10-4.477 10-10 10zm0-2a8 8 0 1 0 0-16 8 8 0 0 0 0 16zm-3.5-6H14a.5.5 0 1 0 0-1h-4a2.5 2.5 0 1 1 0-5h1V6h2v2h2.5v2H10a.5.5 0 1 0 0 1h4a2.5 2.5 0 1 1 0 5h-1v2h-2v-2H8.5v-2z"
        fill="currentColor"/>
    </svg>
  </symbol>
  <symbol id="google">
    <svg viewBox="0 0 48 48">
      <path fill="#FFC107"
            d="M43.611,20.083H42V20H24v8h11.303c-1.649,4.657-6.08,8-11.303,8c-6.627,0-12-5.373-12-12c0-6.627,5.373-12,12-12c3.059,0,5.842,1.154,7.961,3.039l5.657-5.657C34.046,6.053,29.268,4,24,4C12.955,4,4,12.955,4,24c0,11.045,8.955,20,20,20c11.045,0,20-8.955,20-20C44,22.659,43.862,21.35,43.611,20.083z"/>
      <path fill="#FF3D00"
            d="M6.306,14.691l6.571,4.819C14.655,15.108,18.961,12,24,12c3.059,0,5.842,1.154,7.961,3.039l5.657-5.657C34.046,6.053,29.268,4,24,4C16.318,4,9.656,8.337,6.306,14.691z"/>
      <path fill="#4CAF50"
            d="M24,44c5.166,0,9.86-1.977,13.409-5.192l-6.19-5.238C29.211,35.091,26.715,36,24,36c-5.202,0-9.619-3.317-11.283-7.946l-6.522,5.025C9.505,39.556,16.227,44,24,44z"/>
      <path fill="#1976D2"
            d="M43.611,20.083H42V20H24v8h11.303c-0.792,2.237-2.231,4.166-4.087,5.571c0.001-0.001,0.002-0.001,0.003-0.002l6.19,5.238C36.971,39.205,44,34,44,24C44,22.659,43.862,21.35,43.611,20.083z"/>
    </svg>
  </symbol>
  <symbol id="facebook">
    <svg viewBox="0 0 32 32">
      <path
        d="M19.6195 12.614L19.405 15.606H16.5436V26H12.9287V15.606H11V12.614H12.9287V10.604C12.9287 9.718 12.9492 8.352 13.5498 7.506C14.1822 6.608 15.0514 6 16.5436 6C18.976 6 20 6.372 20 6.372L19.5188 9.436C19.5188 9.436 18.7148 9.186 17.965 9.186C17.2151 9.186 16.5436 9.474 16.5436 10.278V12.614H19.6195Z"
        fill="#4267B2"/>
    </svg>
  </symbol>
  <symbol id="linkedin">
    <svg viewBox="0 0 24 24">
      <path fill="#0a65c2"
            d="M19 0h-14c-2.761 0-5 2.239-5 5v14c0 2.761 2.239 5 5 5h14c2.762 0 5-2.239 5-5v-14c0-2.761-2.238-5-5-5zm-11 19h-3v-11h3v11zm-1.5-12.268c-.966 0-1.75-.79-1.75-1.764s.784-1.764 1.75-1.764 1.75.79 1.75 1.764-.783 1.764-1.75 1.764zm13.5 12.268h-3v-5.604c0-3.368-4-3.113-4 0v5.604h-3v-11h3v1.765c1.396-2.586 7-2.777 7 2.476v6.759z"/>
    </svg>
  </symbol>
  <symbol id="edit">
    <svg viewBox="0 0 24 24">
      <path
        fill="currentColor"
        d="M12.9 6.858l4.242 4.243L7.242 21H3v-4.243l9.9-9.9zm1.414-1.414l2.121-2.122a1 1 0 0 1 1.414 0l2.829 2.829a1 1 0 0 1 0 1.414l-2.122 2.121-4.242-4.242z"/>
    </svg>
  </symbol>
  <symbol id="trash">
    <svg viewBox="0 0 24 24">
      <path
        fill="currentColor"
        d="M17 6h5v2h-2v13a1 1 0 0 1-1 1H5a1 1 0 0 1-1-1V8H2V6h5V3a1 1 0 0 1 1-1h8a1 1 0 0 1 1 1v3zm1 2H6v12h12V8zm-9 3h2v6H9v-6zm4 0h2v6h-2v-6zM9 4v2h6V4H9z"/>
    </svg>
  </symbol>
  <symbol id="plus">
    <svg viewBox="0 0 24 24">
      <path d="M11 11V5h2v6h6v2h-6v6h-2v-6H5v-2z" fill="currentColor"/>
    </svg>
  </symbol>
  <symbol id="more">
    <svg viewBox="0 0 16 16">
      <path
        d="M3.99935 6.66675C3.26602 6.66675 2.66602 7.26675 2.66602 8.00008C2.66602 8.73341 3.26602 9.33341 3.99935 9.33341C4.73268 9.33341 5.33268 8.73341 5.33268 8.00008C5.33268 7.26675 4.73268 6.66675 3.99935 6.66675ZM11.9993 6.66675C11.266 6.66675 10.666 7.26675 10.666 8.00008C10.666 8.73341 11.266 9.33341 11.9993 9.33341C12.7327 9.33341 13.3327 8.73341 13.3327 8.00008C13.3327 7.26675 12.7327 6.66675 11.9993 6.66675ZM7.99935 6.66675C7.26602 6.66675 6.66602 7.26675 6.66602 8.00008C6.66602 8.73341 7.26602 9.33341 7.99935 9.33341C8.73268 9.33341 9.33268 8.73341 9.33268 8.00008C9.33268 7.26675 8.73268 6.66675 7.99935 6.66675Z"
        fill="currentColor"/>
    </svg>
  </symbol>
</svg>
